<?xml version="1.0" encoding="UTF-8" standalone="no"?>
<!DOCTYPE svg PUBLIC "-//W3C//DTD SVG 1.1//EN"
 "http://www.w3.org/Graphics/SVG/1.1/DTD/svg11.dtd">
<!-- Generated by graphviz version 2.44.0 (0)
 -->
<!-- Title: CC3 AWS Connect High Level Architecture Pages: 1 -->
<svg width="2326pt" height="1226pt"
 viewBox="0.00 0.00 2325.50 1226.00" xmlns="http://www.w3.org/2000/svg" xmlns:xlink="http://www.w3.org/1999/xlink">
<g id="graph0" class="graph" transform="scale(1 1) rotate(0) translate(144 1082)">
<title>CC3 AWS Connect High Level Architecture</title>
<polygon fill="white" stroke="transparent" points="-144,144 -144,-1082 2181.5,-1082 2181.5,144 -144,144"/>
<text text-anchor="middle" x="1018.75" y="-9" font-family="Sans-Serif" font-size="15.00" fill="#2d3436">CC3 AWS Connect High Level Architecture</text>
<g id="clust1" class="cluster">
<title>cluster_CCU3 awsconnect</title>
<path fill="#e5f5fd" stroke="#aeb6be" d="M20,-187C20,-187 1298,-187 1298,-187 1304,-187 1310,-193 1310,-199 1310,-199 1310,-743 1310,-743 1310,-749 1304,-755 1298,-755 1298,-755 20,-755 20,-755 14,-755 8,-749 8,-743 8,-743 8,-199 8,-199 8,-193 14,-187 20,-187"/>
<text text-anchor="middle" x="63.5" y="-194.4" font-family="Sans-Serif" font-size="12.00" fill="#2d3436">CCU3 awsconnect</text>
</g>
<g id="clust2" class="cluster">
<title>cluster_Websocket Handler</title>
<path fill="#ebf3e7" stroke="#aeb6be" d="M28,-361C28,-361 1290,-361 1290,-361 1296,-361 1302,-367 1302,-373 1302,-373 1302,-560 1302,-560 1302,-566 1296,-572 1290,-572 1290,-572 28,-572 28,-572 22,-572 16,-566 16,-560 16,-560 16,-373 16,-373 16,-367 22,-361 28,-361"/>
<text text-anchor="middle" x="76" y="-368.4" font-family="Sans-Serif" font-size="12.00" fill="#2d3436">Websocket Handler</text>
</g>
<g id="clust3" class="cluster">
<title>cluster_Connection</title>
<path fill="#ece8f6" stroke="#aeb6be" d="M468,-390C468,-390 850,-390 850,-390 856,-390 862,-396 862,-402 862,-402 862,-552 862,-552 862,-558 856,-564 850,-564 850,-564 468,-564 468,-564 462,-564 456,-558 456,-552 456,-552 456,-402 456,-402 456,-396 462,-390 468,-390"/>
<text text-anchor="middle" x="494.5" y="-397.4" font-family="Sans-Serif" font-size="12.00" fill="#2d3436">Connection</text>
</g>
<g id="clust4" class="cluster">
<title>cluster_Messaging</title>
<path fill="#ece8f6" stroke="#aeb6be" d="M900,-390C900,-390 1282,-390 1282,-390 1288,-390 1294,-396 1294,-402 1294,-402 1294,-552 1294,-552 1294,-558 1288,-564 1282,-564 1282,-564 900,-564 900,-564 894,-564 888,-558 888,-552 888,-552 888,-402 888,-402 888,-396 894,-390 900,-390"/>
<text text-anchor="middle" x="925" y="-397.4" font-family="Sans-Serif" font-size="12.00" fill="#2d3436">Messaging</text>
</g>
<g id="clust5" class="cluster">
<title>cluster_Dynamo Streams</title>
<path fill="#ece8f6" stroke="#aeb6be" d="M36,-390C36,-390 418,-390 418,-390 424,-390 430,-396 430,-402 430,-402 430,-552 430,-552 430,-558 424,-564 418,-564 418,-564 36,-564 36,-564 30,-564 24,-558 24,-552 24,-552 24,-402 24,-402 24,-396 30,-390 36,-390"/>
<text text-anchor="middle" x="77.5" y="-397.4" font-family="Sans-Serif" font-size="12.00" fill="#2d3436">Dynamo Streams</text>
</g>
<!-- 01eb692ac97a4b8f9a7209e48c1bd1da -->
<g id="node1" class="node">
<title>01eb692ac97a4b8f9a7209e48c1bd1da</title>
<image xlink:href="/home/bradenmars/.local/lib/python3.8/site-packages/resources/aws/engagement/connect.png" width="101px" height="101px" preserveAspectRatio="xMinYMin meet" x="1416.5" y="-335"/>
<text text-anchor="middle" x="1467" y="-219.6" font-family="Sans-Serif" font-size="13.00" fill="#2d3436">Connect</text>
</g>
<!-- 95ef15fd1bac42b59806fbdd0604449b -->
<g id="node3" class="node">
<title>95ef15fd1bac42b59806fbdd0604449b</title>
<image xlink:href="/home/bradenmars/.local/lib/python3.8/site-packages/resources/programming/framework/vue.png" width="101px" height="101px" preserveAspectRatio="xMinYMin meet" x="1416.5" y="-538"/>
<text text-anchor="middle" x="1467" y="-422.6" font-family="Sans-Serif" font-size="13.00" fill="#2d3436">CCU3 Web</text>
</g>
<!-- 01eb692ac97a4b8f9a7209e48c1bd1da&#45;&gt;95ef15fd1bac42b59806fbdd0604449b -->
<g id="edge34" class="edge">
<title>01eb692ac97a4b8f9a7209e48c1bd1da&#45;&gt;95ef15fd1bac42b59806fbdd0604449b</title>
<path fill="none" stroke="#7b8894" d="M1467,-363.23C1467,-363.23 1467,-418.84 1467,-418.84"/>
<polygon fill="#7b8894" stroke="#7b8894" points="1470.5,-363.23 1467,-353.23 1463.5,-363.23 1470.5,-363.23"/>
</g>
<!-- 06e08509d78d4b5998086aeb03c89da2 -->
<g id="node20" class="node">
<title>06e08509d78d4b5998086aeb03c89da2</title>
<image xlink:href="/home/bradenmars/.local/lib/python3.8/site-packages/resources/onprem/client/users.png" width="101px" height="101px" preserveAspectRatio="xMinYMin meet" x="1648.5" y="-538"/>
<text text-anchor="middle" x="1699" y="-422.6" font-family="Sans-Serif" font-size="13.00" fill="#2d3436">Inbound Contacts</text>
</g>
<!-- 01eb692ac97a4b8f9a7209e48c1bd1da&#45;&gt;06e08509d78d4b5998086aeb03c89da2 -->
<g id="edge33" class="edge">
<title>01eb692ac97a4b8f9a7209e48c1bd1da&#45;&gt;06e08509d78d4b5998086aeb03c89da2</title>
<path fill="none" stroke="brown" stroke-width="2" d="M1527.63,-262C1527.63,-262 1699,-262 1699,-262 1699,-262 1699,-352.58 1699,-418.92"/>
<polygon fill="brown" stroke="brown" stroke-width="2" points="1527.63,-258.5 1517.63,-262 1527.63,-265.5 1527.63,-258.5"/>
</g>
<!-- 97a0a35bf29d47498c79b9064f6a863f -->
<g id="node2" class="node">
<title>97a0a35bf29d47498c79b9064f6a863f</title>
<image xlink:href="/home/bradenmars/.local/lib/python3.8/site-packages/resources/aws/compute/lambda.png" width="101px" height="101px" preserveAspectRatio="xMinYMin meet" x="666.5" y="-144"/>
<text text-anchor="middle" x="717" y="-28.6" font-family="Sans-Serif" font-size="13.00" fill="#2d3436">awsConnect</text>
</g>
<!-- 97a0a35bf29d47498c79b9064f6a863f&#45;&gt;01eb692ac97a4b8f9a7209e48c1bd1da -->
<g id="edge32" class="edge">
<title>97a0a35bf29d47498c79b9064f6a863f&#45;&gt;01eb692ac97a4b8f9a7209e48c1bd1da</title>
<path fill="none" stroke="orange" stroke-width="2" d="M777.67,-94C777.67,-94 1467,-94 1467,-94 1467,-94 1467,-205.99 1467,-205.99"/>
<polygon fill="orange" stroke="orange" stroke-width="2" points="777.67,-90.5 767.67,-94 777.67,-97.5 777.67,-90.5"/>
<polygon fill="orange" stroke="orange" stroke-width="2" points="1463.5,-205.99 1467,-215.99 1470.5,-205.99 1463.5,-205.99"/>
</g>
<!-- 0ccfde94e61b4271b1995a2700a4abe7 -->
<g id="node4" class="node">
<title>0ccfde94e61b4271b1995a2700a4abe7</title>
<image xlink:href="/home/bradenmars/.local/lib/python3.8/site-packages/resources/programming/framework/django.png" width="101px" height="101px" preserveAspectRatio="xMinYMin meet" x="1318.5" y="-729"/>
<text text-anchor="middle" x="1369" y="-613.6" font-family="Sans-Serif" font-size="13.00" fill="#2d3436">CCU3 Api</text>
</g>
<!-- 95ef15fd1bac42b59806fbdd0604449b&#45;&gt;0ccfde94e61b4271b1995a2700a4abe7 -->
<g id="edge29" class="edge">
<title>95ef15fd1bac42b59806fbdd0604449b&#45;&gt;0ccfde94e61b4271b1995a2700a4abe7</title>
<path fill="none" stroke="firebrick" stroke-width="2" d="M1445.5,-566.04C1445.5,-566.04 1445.5,-656 1445.5,-656 1445.5,-656 1429.6,-656 1429.6,-656"/>
<polygon fill="firebrick" stroke="firebrick" stroke-width="2" points="1449,-566.04 1445.5,-556.04 1442,-566.04 1449,-566.04"/>
<polygon fill="firebrick" stroke="firebrick" stroke-width="2" points="1429.6,-652.5 1419.6,-656 1429.6,-659.5 1429.6,-652.5"/>
</g>
<!-- 95ef15fd1bac42b59806fbdd0604449b&#45;&gt;0ccfde94e61b4271b1995a2700a4abe7 -->
<g id="edge35" class="edge">
<title>95ef15fd1bac42b59806fbdd0604449b&#45;&gt;0ccfde94e61b4271b1995a2700a4abe7</title>
<path fill="none" stroke="green" stroke-width="2" d="M1471.5,-566.25C1471.5,-566.25 1471.5,-702 1471.5,-702 1471.5,-702 1445.47,-702 1419.65,-702"/>
<polygon fill="green" stroke="green" stroke-width="2" points="1475,-566.25 1471.5,-556.25 1468,-566.25 1475,-566.25"/>
</g>
<!-- 36445989bbaa4363b0ef55723af0f2b5 -->
<g id="node7" class="node">
<title>36445989bbaa4363b0ef55723af0f2b5</title>
<image xlink:href="/home/bradenmars/.local/lib/python3.8/site-packages/resources/aws/network/api-gateway.png" width="101px" height="101px" preserveAspectRatio="xMinYMin meet" x="680.5" y="-335"/>
<text text-anchor="middle" x="731" y="-219.6" font-family="Sans-Serif" font-size="13.00" fill="#2d3436">Websocket Gateway</text>
</g>
<!-- 95ef15fd1bac42b59806fbdd0604449b&#45;&gt;36445989bbaa4363b0ef55723af0f2b5 -->
<g id="edge25" class="edge">
<title>95ef15fd1bac42b59806fbdd0604449b&#45;&gt;36445989bbaa4363b0ef55723af0f2b5</title>
<path fill="none" stroke="#7b8894" d="M1441.75,-408.82C1441.75,-408.82 1441.75,-375 1441.75,-375 1441.75,-375 771.83,-375 771.83,-375 771.83,-375 771.83,-363.09 771.83,-363.09"/>
<polygon fill="#7b8894" stroke="#7b8894" points="1438.25,-408.82 1441.75,-418.82 1445.25,-408.82 1438.25,-408.82"/>
<polygon fill="#7b8894" stroke="#7b8894" points="775.33,-363.09 771.83,-353.09 768.33,-363.09 775.33,-363.09"/>
</g>
<!-- 4d6ebf0697df4a15acfb351f1182eb2c -->
<g id="node19" class="node">
<title>4d6ebf0697df4a15acfb351f1182eb2c</title>
<image xlink:href="/home/bradenmars/.local/lib/python3.8/site-packages/resources/aws/analytics/kinesis.png" width="101px" height="101px" preserveAspectRatio="xMinYMin meet" x="1497.5" y="-729"/>
<text text-anchor="middle" x="1548" y="-613.6" font-family="Sans-Serif" font-size="13.00" fill="#2d3436">AWSConnectStreams</text>
</g>
<!-- 95ef15fd1bac42b59806fbdd0604449b&#45;&gt;4d6ebf0697df4a15acfb351f1182eb2c -->
<g id="edge26" class="edge">
<title>95ef15fd1bac42b59806fbdd0604449b&#45;&gt;4d6ebf0697df4a15acfb351f1182eb2c</title>
<path fill="none" stroke="blue" stroke-width="2" d="M1507.5,-566.19C1507.5,-566.19 1507.5,-599.78 1507.5,-599.78"/>
<polygon fill="blue" stroke="blue" stroke-width="2" points="1504,-599.78 1507.5,-609.78 1511,-599.78 1504,-599.78"/>
<polygon fill="blue" stroke="blue" stroke-width="2" points="1511,-566.19 1507.5,-556.19 1504,-566.19 1511,-566.19"/>
</g>
<!-- 0ccfde94e61b4271b1995a2700a4abe7&#45;&gt;01eb692ac97a4b8f9a7209e48c1bd1da -->
<g id="edge28" class="edge">
<title>0ccfde94e61b4271b1995a2700a4abe7&#45;&gt;01eb692ac97a4b8f9a7209e48c1bd1da</title>
<path fill="none" stroke="green" stroke-dasharray="5,2" d="M1383.83,-609.78C1383.83,-500.41 1383.83,-299 1383.83,-299 1383.83,-299 1406.23,-299 1406.23,-299"/>
<polygon fill="green" stroke="green" points="1406.23,-302.5 1416.23,-299 1406.23,-295.5 1406.23,-302.5"/>
<text text-anchor="middle" x="1360.33" y="-432.79" font-family="Sans-Serif" font-size="13.00" fill="#2d3436">Agent</text>
<text text-anchor="middle" x="1360.33" y="-418.79" font-family="Sans-Serif" font-size="13.00" fill="#2d3436">Confirm</text>
<text text-anchor="middle" x="1360.33" y="-404.79" font-family="Sans-Serif" font-size="13.00" fill="#2d3436">Prompt</text>
</g>
<!-- c61dd7836b4c4ce5bd097047fd3513e6 -->
<g id="node11" class="node">
<title>c61dd7836b4c4ce5bd097047fd3513e6</title>
<image xlink:href="/home/bradenmars/.local/lib/python3.8/site-packages/resources/aws/database/dynamodb.png" width="101px" height="101px" preserveAspectRatio="xMinYMin meet" x="608.5" y="-729"/>
<text text-anchor="middle" x="659" y="-613.6" font-family="Sans-Serif" font-size="13.00" fill="#2d3436">ConnectClientsDB</text>
</g>
<!-- 0ccfde94e61b4271b1995a2700a4abe7&#45;&gt;c61dd7836b4c4ce5bd097047fd3513e6 -->
<g id="edge30" class="edge">
<title>0ccfde94e61b4271b1995a2700a4abe7&#45;&gt;c61dd7836b4c4ce5bd097047fd3513e6</title>
<path fill="none" stroke="firebrick" stroke-width="2" d="M1318.22,-730C1318.22,-730 719.65,-730 719.65,-730"/>
<polygon fill="firebrick" stroke="firebrick" stroke-width="2" points="719.65,-726.5 709.65,-730 719.65,-733.5 719.65,-726.5"/>
</g>
<!-- 6e8c4d5378234d46be395d0ea35e1b84 -->
<g id="node21" class="node">
<title>6e8c4d5378234d46be395d0ea35e1b84</title>
<image xlink:href="/home/bradenmars/.local/lib/python3.8/site-packages/resources/onprem/client/users.png" width="101px" height="101px" preserveAspectRatio="xMinYMin meet" x="1318.5" y="-920"/>
<text text-anchor="middle" x="1369" y="-804.6" font-family="Sans-Serif" font-size="13.00" fill="#2d3436">Outbound Contacts</text>
</g>
<!-- 0ccfde94e61b4271b1995a2700a4abe7&#45;&gt;6e8c4d5378234d46be395d0ea35e1b84 -->
<g id="edge36" class="edge">
<title>0ccfde94e61b4271b1995a2700a4abe7&#45;&gt;6e8c4d5378234d46be395d0ea35e1b84</title>
<path fill="none" stroke="green" stroke-width="2" d="M1369,-757.19C1369,-757.19 1369,-800.78 1369,-800.78"/>
<polygon fill="green" stroke="green" stroke-width="2" points="1372.5,-757.19 1369,-747.19 1365.5,-757.19 1372.5,-757.19"/>
</g>
<!-- 90b5dd8ca8f343eaaab3726938f81b90 -->
<g id="node5" class="node">
<title>90b5dd8ca8f343eaaab3726938f81b90</title>
<image xlink:href="/home/bradenmars/.local/lib/python3.8/site-packages/resources/onprem/client/users.png" width="101px" height="101px" preserveAspectRatio="xMinYMin meet" x="1792.5" y="-538"/>
<text text-anchor="middle" x="1843" y="-422.6" font-family="Sans-Serif" font-size="13.00" fill="#2d3436">Users</text>
</g>
<!-- 7a7cf4dc23144277b64226107adba63f -->
<g id="node6" class="node">
<title>7a7cf4dc23144277b64226107adba63f</title>
<image xlink:href="/home/bradenmars/.local/lib/python3.8/site-packages/resources/onprem/client/users.png" width="101px" height="101px" preserveAspectRatio="xMinYMin meet" x="1936.5" y="-538"/>
<text text-anchor="middle" x="1987" y="-422.6" font-family="Sans-Serif" font-size="13.00" fill="#2d3436">Agents</text>
</g>
<!-- a3db030daa7b4fb68336f3148d9de505 -->
<g id="node8" class="node">
<title>a3db030daa7b4fb68336f3148d9de505</title>
<image xlink:href="/home/bradenmars/.local/lib/python3.8/site-packages/resources/aws/compute/lambda.png" width="101px" height="101px" preserveAspectRatio="xMinYMin meet" x="608.5" y="-538"/>
<text text-anchor="middle" x="659" y="-422.6" font-family="Sans-Serif" font-size="13.00" fill="#2d3436">$connect0</text>
</g>
<!-- 36445989bbaa4363b0ef55723af0f2b5&#45;&gt;a3db030daa7b4fb68336f3148d9de505 -->
<g id="edge1" class="edge">
<title>36445989bbaa4363b0ef55723af0f2b5&#45;&gt;a3db030daa7b4fb68336f3148d9de505</title>
<path fill="none" stroke="#7b8894" d="M695,-353.23C695,-374.39 695,-397.68 695,-418.84"/>
</g>
<!-- aaf59d40fed549509fa1215baae7ec02 -->
<g id="node9" class="node">
<title>aaf59d40fed549509fa1215baae7ec02</title>
<image xlink:href="/home/bradenmars/.local/lib/python3.8/site-packages/resources/aws/compute/lambda.png" width="101px" height="101px" preserveAspectRatio="xMinYMin meet" x="464.5" y="-538"/>
<text text-anchor="middle" x="515" y="-422.6" font-family="Sans-Serif" font-size="13.00" fill="#2d3436">$connect1</text>
</g>
<!-- 36445989bbaa4363b0ef55723af0f2b5&#45;&gt;aaf59d40fed549509fa1215baae7ec02 -->
<g id="edge2" class="edge">
<title>36445989bbaa4363b0ef55723af0f2b5&#45;&gt;aaf59d40fed549509fa1215baae7ec02</title>
<path fill="none" stroke="#7b8894" d="M680.36,-326C616.51,-326 515,-326 515,-326 515,-326 515,-374.65 515,-418.54"/>
</g>
<!-- e1578d5f726c43cc828dfbac4768f4c9 -->
<g id="node10" class="node">
<title>e1578d5f726c43cc828dfbac4768f4c9</title>
<image xlink:href="/home/bradenmars/.local/lib/python3.8/site-packages/resources/aws/compute/lambda.png" width="101px" height="101px" preserveAspectRatio="xMinYMin meet" x="752.5" y="-538"/>
<text text-anchor="middle" x="803" y="-422.6" font-family="Sans-Serif" font-size="13.00" fill="#2d3436">$connect2</text>
</g>
<!-- 36445989bbaa4363b0ef55723af0f2b5&#45;&gt;e1578d5f726c43cc828dfbac4768f4c9 -->
<g id="edge3" class="edge">
<title>36445989bbaa4363b0ef55723af0f2b5&#45;&gt;e1578d5f726c43cc828dfbac4768f4c9</title>
<path fill="none" stroke="#7b8894" d="M762.17,-353.23C762.17,-374.39 762.17,-397.68 762.17,-418.84"/>
</g>
<!-- 883a6dfc37654d5db70fbe02980fc33b -->
<g id="node12" class="node">
<title>883a6dfc37654d5db70fbe02980fc33b</title>
<image xlink:href="/home/bradenmars/.local/lib/python3.8/site-packages/resources/aws/compute/lambda.png" width="101px" height="101px" preserveAspectRatio="xMinYMin meet" x="896.5" y="-538"/>
<text text-anchor="middle" x="947" y="-422.6" font-family="Sans-Serif" font-size="13.00" fill="#2d3436">$default0</text>
</g>
<!-- 36445989bbaa4363b0ef55723af0f2b5&#45;&gt;883a6dfc37654d5db70fbe02980fc33b -->
<g id="edge7" class="edge">
<title>36445989bbaa4363b0ef55723af0f2b5&#45;&gt;883a6dfc37654d5db70fbe02980fc33b</title>
<path fill="none" stroke="#7b8894" d="M781.64,-326C845.49,-326 947,-326 947,-326 947,-326 947,-374.65 947,-418.54"/>
</g>
<!-- 9ee26894641845b085598ed0a469f244 -->
<g id="node13" class="node">
<title>9ee26894641845b085598ed0a469f244</title>
<image xlink:href="/home/bradenmars/.local/lib/python3.8/site-packages/resources/aws/compute/lambda.png" width="101px" height="101px" preserveAspectRatio="xMinYMin meet" x="1184.5" y="-538"/>
<text text-anchor="middle" x="1235" y="-422.6" font-family="Sans-Serif" font-size="13.00" fill="#2d3436">$default1</text>
</g>
<!-- 36445989bbaa4363b0ef55723af0f2b5&#45;&gt;9ee26894641845b085598ed0a469f244 -->
<g id="edge8" class="edge">
<title>36445989bbaa4363b0ef55723af0f2b5&#45;&gt;9ee26894641845b085598ed0a469f244</title>
<path fill="none" stroke="#7b8894" d="M781.63,-244C909.44,-244 1235,-244 1235,-244 1235,-244 1235,-346.69 1235,-418.7"/>
</g>
<!-- 377f809c75c94e29964172301a424b4d -->
<g id="node14" class="node">
<title>377f809c75c94e29964172301a424b4d</title>
<image xlink:href="/home/bradenmars/.local/lib/python3.8/site-packages/resources/aws/compute/lambda.png" width="101px" height="101px" preserveAspectRatio="xMinYMin meet" x="1040.5" y="-538"/>
<text text-anchor="middle" x="1091" y="-422.6" font-family="Sans-Serif" font-size="13.00" fill="#2d3436">$default2</text>
</g>
<!-- 36445989bbaa4363b0ef55723af0f2b5&#45;&gt;377f809c75c94e29964172301a424b4d -->
<g id="edge9" class="edge">
<title>36445989bbaa4363b0ef55723af0f2b5&#45;&gt;377f809c75c94e29964172301a424b4d</title>
<path fill="none" stroke="#7b8894" d="M781.82,-271C881.05,-271 1091,-271 1091,-271 1091,-271 1091,-355.57 1091,-419"/>
</g>
<!-- a3db030daa7b4fb68336f3148d9de505&#45;&gt;c61dd7836b4c4ce5bd097047fd3513e6 -->
<g id="edge4" class="edge">
<title>a3db030daa7b4fb68336f3148d9de505&#45;&gt;c61dd7836b4c4ce5bd097047fd3513e6</title>
<path fill="none" stroke="#7b8894" d="M659,-556.19C659,-556.19 659,-599.78 659,-599.78"/>
<polygon fill="#7b8894" stroke="#7b8894" points="655.5,-599.78 659,-609.78 662.5,-599.78 655.5,-599.78"/>
</g>
<!-- aaf59d40fed549509fa1215baae7ec02&#45;&gt;c61dd7836b4c4ce5bd097047fd3513e6 -->
<g id="edge5" class="edge">
<title>aaf59d40fed549509fa1215baae7ec02&#45;&gt;c61dd7836b4c4ce5bd097047fd3513e6</title>
<path fill="none" stroke="#7b8894" d="M515,-556.04C515,-602.69 515,-656 515,-656 515,-656 598.23,-656 598.23,-656"/>
<polygon fill="#7b8894" stroke="#7b8894" points="598.23,-659.5 608.23,-656 598.23,-652.5 598.23,-659.5"/>
</g>
<!-- e1578d5f726c43cc828dfbac4768f4c9&#45;&gt;c61dd7836b4c4ce5bd097047fd3513e6 -->
<g id="edge6" class="edge">
<title>e1578d5f726c43cc828dfbac4768f4c9&#45;&gt;c61dd7836b4c4ce5bd097047fd3513e6</title>
<path fill="none" stroke="#7b8894" d="M803,-556.22C803,-605.05 803,-662 803,-662 803,-662 719.77,-662 719.77,-662"/>
<polygon fill="#7b8894" stroke="#7b8894" points="719.77,-658.5 709.77,-662 719.77,-665.5 719.77,-658.5"/>
</g>
<!-- c61dd7836b4c4ce5bd097047fd3513e6&#45;&gt;97a0a35bf29d47498c79b9064f6a863f -->
<g id="edge31" class="edge">
<title>c61dd7836b4c4ce5bd097047fd3513e6&#45;&gt;97a0a35bf29d47498c79b9064f6a863f</title>
<path fill="none" stroke="orange" stroke-width="2" d="M598.21,-633C598.21,-633 587,-633 587,-633 587,-633 587,-94 587,-94 587,-94 629.86,-94 666.37,-94"/>
<polygon fill="orange" stroke="orange" stroke-width="2" points="598.21,-636.5 608.21,-633 598.21,-629.5 598.21,-636.5"/>
</g>
<!-- d064134ba7e34fd8a6c1d659014e23e3 -->
<g id="node15" class="node">
<title>d064134ba7e34fd8a6c1d659014e23e3</title>
<image xlink:href="/home/bradenmars/.local/lib/python3.8/site-packages/resources/aws/compute/lambda.png" width="101px" height="101px" preserveAspectRatio="xMinYMin meet" x="176.5" y="-538"/>
<text text-anchor="middle" x="227" y="-422.6" font-family="Sans-Serif" font-size="13.00" fill="#2d3436">Agents</text>
</g>
<!-- c61dd7836b4c4ce5bd097047fd3513e6&#45;&gt;d064134ba7e34fd8a6c1d659014e23e3 -->
<g id="edge16" class="edge">
<title>c61dd7836b4c4ce5bd097047fd3513e6&#45;&gt;d064134ba7e34fd8a6c1d659014e23e3</title>
<path fill="none" stroke="#7b8894" d="M608.17,-702C493.98,-702 227,-702 227,-702 227,-702 227,-566.25 227,-566.25"/>
<polygon fill="#7b8894" stroke="#7b8894" points="230.5,-566.25 227,-556.25 223.5,-566.25 230.5,-566.25"/>
</g>
<!-- bf22bc1dc6f3488fbc2733d00c897ce7 -->
<g id="node16" class="node">
<title>bf22bc1dc6f3488fbc2733d00c897ce7</title>
<image xlink:href="/home/bradenmars/.local/lib/python3.8/site-packages/resources/aws/compute/lambda.png" width="101px" height="101px" preserveAspectRatio="xMinYMin meet" x="32.5" y="-538"/>
<text text-anchor="middle" x="83" y="-422.6" font-family="Sans-Serif" font-size="13.00" fill="#2d3436">Contacts</text>
</g>
<!-- c61dd7836b4c4ce5bd097047fd3513e6&#45;&gt;bf22bc1dc6f3488fbc2733d00c897ce7 -->
<g id="edge17" class="edge">
<title>c61dd7836b4c4ce5bd097047fd3513e6&#45;&gt;bf22bc1dc6f3488fbc2733d00c897ce7</title>
<path fill="none" stroke="#7b8894" d="M608.39,-725C467.83,-725 83,-725 83,-725 83,-725 83,-566.19 83,-566.19"/>
<polygon fill="#7b8894" stroke="#7b8894" points="86.5,-566.19 83,-556.19 79.5,-566.19 86.5,-566.19"/>
</g>
<!-- fa0eb04486164f33aeffc375fb491493 -->
<g id="node17" class="node">
<title>fa0eb04486164f33aeffc375fb491493</title>
<image xlink:href="/home/bradenmars/.local/lib/python3.8/site-packages/resources/aws/compute/lambda.png" width="101px" height="101px" preserveAspectRatio="xMinYMin meet" x="320.5" y="-538"/>
<text text-anchor="middle" x="371" y="-422.6" font-family="Sans-Serif" font-size="13.00" fill="#2d3436">Metrics</text>
</g>
<!-- c61dd7836b4c4ce5bd097047fd3513e6&#45;&gt;fa0eb04486164f33aeffc375fb491493 -->
<g id="edge18" class="edge">
<title>c61dd7836b4c4ce5bd097047fd3513e6&#45;&gt;fa0eb04486164f33aeffc375fb491493</title>
<path fill="none" stroke="#7b8894" d="M608.17,-679C525.5,-679 371,-679 371,-679 371,-679 371,-566.09 371,-566.09"/>
<polygon fill="#7b8894" stroke="#7b8894" points="374.5,-566.09 371,-556.09 367.5,-566.1 374.5,-566.09"/>
</g>
<!-- 883a6dfc37654d5db70fbe02980fc33b&#45;&gt;0ccfde94e61b4271b1995a2700a4abe7 -->
<g id="edge10" class="edge">
<title>883a6dfc37654d5db70fbe02980fc33b&#45;&gt;0ccfde94e61b4271b1995a2700a4abe7</title>
<path fill="none" stroke="#7b8894" d="M963.83,-556.12C963.83,-598.57 963.83,-645 963.83,-645 963.83,-645 1209.28,-645 1318.1,-645"/>
</g>
<!-- 883a6dfc37654d5db70fbe02980fc33b&#45;&gt;c61dd7836b4c4ce5bd097047fd3513e6 -->
<g id="edge13" class="edge">
<title>883a6dfc37654d5db70fbe02980fc33b&#45;&gt;c61dd7836b4c4ce5bd097047fd3513e6</title>
<path fill="none" stroke="#7b8894" d="M930.17,-556.09C930.17,-611.04 930.17,-679 930.17,-679 930.17,-679 719.69,-679 719.69,-679"/>
<polygon fill="#7b8894" stroke="#7b8894" points="719.69,-675.5 709.69,-679 719.69,-682.5 719.69,-675.5"/>
</g>
<!-- 9ee26894641845b085598ed0a469f244&#45;&gt;0ccfde94e61b4271b1995a2700a4abe7 -->
<g id="edge11" class="edge">
<title>9ee26894641845b085598ed0a469f244&#45;&gt;0ccfde94e61b4271b1995a2700a4abe7</title>
<path fill="none" stroke="#7b8894" d="M1285.61,-488C1316.92,-488 1351.17,-488 1351.17,-488 1351.17,-488 1351.17,-555.38 1351.17,-609.99"/>
</g>
<!-- 9ee26894641845b085598ed0a469f244&#45;&gt;c61dd7836b4c4ce5bd097047fd3513e6 -->
<g id="edge14" class="edge">
<title>9ee26894641845b085598ed0a469f244&#45;&gt;c61dd7836b4c4ce5bd097047fd3513e6</title>
<path fill="none" stroke="#7b8894" d="M1235,-556.08C1235,-622.42 1235,-713 1235,-713 1235,-713 719.61,-713 719.61,-713"/>
<polygon fill="#7b8894" stroke="#7b8894" points="719.61,-709.5 709.61,-713 719.61,-716.5 719.61,-709.5"/>
</g>
<!-- 377f809c75c94e29964172301a424b4d&#45;&gt;0ccfde94e61b4271b1995a2700a4abe7 -->
<g id="edge12" class="edge">
<title>377f809c75c94e29964172301a424b4d&#45;&gt;0ccfde94e61b4271b1995a2700a4abe7</title>
<path fill="none" stroke="#7b8894" d="M1107.83,-556.1C1107.83,-591.77 1107.83,-628 1107.83,-628 1107.83,-628 1242.39,-628 1318.33,-628"/>
</g>
<!-- 377f809c75c94e29964172301a424b4d&#45;&gt;c61dd7836b4c4ce5bd097047fd3513e6 -->
<g id="edge15" class="edge">
<title>377f809c75c94e29964172301a424b4d&#45;&gt;c61dd7836b4c4ce5bd097047fd3513e6</title>
<path fill="none" stroke="#7b8894" d="M1074.17,-556.06C1074.17,-616.83 1074.17,-696 1074.17,-696 1074.17,-696 719.91,-696 719.91,-696"/>
<polygon fill="#7b8894" stroke="#7b8894" points="719.91,-692.5 709.91,-696 719.91,-699.5 719.91,-692.5"/>
</g>
<!-- d064134ba7e34fd8a6c1d659014e23e3&#45;&gt;36445989bbaa4363b0ef55723af0f2b5 -->
<g id="edge19" class="edge">
<title>d064134ba7e34fd8a6c1d659014e23e3&#45;&gt;36445989bbaa4363b0ef55723af0f2b5</title>
<path fill="none" stroke="#7b8894" d="M227,-419C227,-355.57 227,-271 227,-271 227,-271 670.37,-271 670.37,-271"/>
<polygon fill="#7b8894" stroke="#7b8894" points="670.37,-274.5 680.37,-271 670.37,-267.5 670.37,-274.5"/>
</g>
<!-- bf22bc1dc6f3488fbc2733d00c897ce7&#45;&gt;36445989bbaa4363b0ef55723af0f2b5 -->
<g id="edge20" class="edge">
<title>bf22bc1dc6f3488fbc2733d00c897ce7&#45;&gt;36445989bbaa4363b0ef55723af0f2b5</title>
<path fill="none" stroke="#7b8894" d="M83,-418.7C83,-346.69 83,-244 83,-244 83,-244 670.42,-244 670.42,-244"/>
<polygon fill="#7b8894" stroke="#7b8894" points="670.42,-247.5 680.42,-244 670.42,-240.5 670.42,-247.5"/>
</g>
<!-- fa0eb04486164f33aeffc375fb491493&#45;&gt;36445989bbaa4363b0ef55723af0f2b5 -->
<g id="edge21" class="edge">
<title>fa0eb04486164f33aeffc375fb491493&#45;&gt;36445989bbaa4363b0ef55723af0f2b5</title>
<path fill="none" stroke="#7b8894" d="M371,-418.91C371,-365.02 371,-299 371,-299 371,-299 670.18,-299 670.18,-299"/>
<polygon fill="#7b8894" stroke="#7b8894" points="670.18,-302.5 680.18,-299 670.18,-295.5 670.18,-302.5"/>
</g>
<!-- cde3208fd909484c8fb9f20d4892ec42 -->
<g id="node18" class="node">
<title>cde3208fd909484c8fb9f20d4892ec42</title>
<image xlink:href="/home/bradenmars/.local/lib/python3.8/site-packages/resources/onprem/client/client.png" width="101px" height="101px" preserveAspectRatio="xMinYMin meet" x="1792.5" y="-335"/>
<text text-anchor="middle" x="1843" y="-219.6" font-family="Sans-Serif" font-size="13.00" fill="#2d3436">Client</text>
</g>
<!-- cde3208fd909484c8fb9f20d4892ec42&#45;&gt;95ef15fd1bac42b59806fbdd0604449b -->
<g id="edge24" class="edge">
<title>cde3208fd909484c8fb9f20d4892ec42&#45;&gt;95ef15fd1bac42b59806fbdd0604449b</title>
<path fill="none" stroke="#7b8894" d="M1826.17,-353.18C1826.17,-376.6 1826.17,-397 1826.17,-397 1826.17,-397 1492.25,-397 1492.25,-397 1492.25,-397 1492.25,-406.29 1492.25,-418.91"/>
</g>
<!-- cde3208fd909484c8fb9f20d4892ec42&#45;&gt;90b5dd8ca8f343eaaab3726938f81b90 -->
<g id="edge22" class="edge">
<title>cde3208fd909484c8fb9f20d4892ec42&#45;&gt;90b5dd8ca8f343eaaab3726938f81b90</title>
<path fill="none" stroke="#7b8894" stroke-dasharray="1,5" d="M1859.83,-353.23C1859.83,-374.39 1859.83,-397.68 1859.83,-418.84"/>
</g>
<!-- cde3208fd909484c8fb9f20d4892ec42&#45;&gt;7a7cf4dc23144277b64226107adba63f -->
<g id="edge23" class="edge">
<title>cde3208fd909484c8fb9f20d4892ec42&#45;&gt;7a7cf4dc23144277b64226107adba63f</title>
<path fill="none" stroke="#7b8894" stroke-dasharray="1,5" d="M1893.77,-285C1935.23,-285 1987,-285 1987,-285 1987,-285 1987,-360.2 1987,-418.94"/>
</g>
<!-- 4d6ebf0697df4a15acfb351f1182eb2c&#45;&gt;01eb692ac97a4b8f9a7209e48c1bd1da -->
<g id="edge27" class="edge">
<title>4d6ebf0697df4a15acfb351f1182eb2c&#45;&gt;01eb692ac97a4b8f9a7209e48c1bd1da</title>
<path fill="none" stroke="blue" stroke-width="2" d="M1558,-599.68C1558,-599.68 1558,-308 1558,-308 1558,-308 1538.5,-308 1517.56,-308"/>
<polygon fill="blue" stroke="blue" stroke-width="2" points="1554.5,-599.68 1558,-609.68 1561.5,-599.68 1554.5,-599.68"/>
</g>
</g>
</svg>
